<svg width="1923" height="72" viewBox="0 0 1923 72" fill="none" xmlns="http://www.w3.org/2000/svg">
<g clip-path="url(#clip0_489_386)">
<path d="M35.4437 133.047V72.5255C35.4437 66.1066 40.5071 60.9714 46.8363 60.9714C53.1655 60.9714 58.2289 66.1066 58.2289 72.5255V133.047M0 133.047V69.4078C0 43.1817 20.9769 21.9075 46.8363 21.9075C72.6957 21.9075 93.6726 43.1817 93.6726 69.4078L93.8534 133.047M23.5086 133.047V70.8749C23.5086 57.8536 33.997 47.2165 46.8363 47.2165C59.6756 47.2165 70.164 57.8536 70.164 70.8749V133.047M11.9351 133.047V70.5082C11.9351 50.8845 27.4869 35.1122 46.8363 35.1122C66.1857 35.1122 81.7375 50.8845 81.7375 70.5082V133.231M86.0775 43.3651C88.0667 41.3477 90.9601 40.2473 94.0343 40.2473C97.1085 40.2473 99.821 41.5311 101.991 43.3651M54.6122 22.6411C62.9306 9.61974 77.3974 1 93.8534 1C110.309 1 124.776 9.61974 133.095 22.6411M77.3974 33.2782C81.5566 28.8766 87.5242 26.309 94.0343 26.309C100.544 26.309 106.331 29.06 110.671 33.2782M67.2707 26.6758C73.5999 18.9731 83.1842 14.2047 93.8534 14.2047C104.523 14.2047 114.107 18.9731 120.436 26.6758M129.478 133.047V72.5255C129.478 66.1066 134.541 60.9714 140.871 60.9714C147.2 60.9714 152.263 66.1066 152.263 72.5255V133.047M94.0343 133.047V69.4078C94.0343 43.1817 115.011 21.9075 140.871 21.9075C166.73 21.9075 187.707 43.1817 187.707 69.4078L187.888 133.047M117.543 133.047V70.8749C117.543 57.8536 128.031 47.2165 140.871 47.2165C153.71 47.2165 164.198 57.8536 164.198 70.8749V133.047M105.969 133.047V70.5082C105.969 50.8845 121.521 35.1122 140.871 35.1122C160.22 35.1122 175.772 50.8845 175.772 70.5082V133.231M180.112 43.3651C182.101 41.3477 184.994 40.2473 188.069 40.2473C191.143 40.2473 193.855 41.5311 196.025 43.3651M148.646 22.6411C156.965 9.61974 171.432 1 187.888 1C204.344 1 218.81 9.61974 227.129 22.6411M171.251 33.2782C175.41 28.8766 181.378 26.309 187.888 26.309C194.398 26.309 200.184 29.06 204.525 33.2782M161.305 26.6758C167.634 18.9731 177.218 14.2047 187.888 14.2047C198.557 14.2047 208.141 18.9731 214.47 26.6758M223.512 133.047V72.5255C223.512 66.1066 228.576 60.9714 234.905 60.9714C241.234 60.9714 246.297 66.1066 246.297 72.5255V133.047M188.069 133.047V69.4078C188.069 43.1817 209.045 21.9075 234.905 21.9075C260.764 21.9075 281.741 43.1817 281.741 69.4078L281.922 133.047L281.922 69.4078C281.922 43.1817 302.899 21.9075 328.758 21.9075C354.618 21.9075 375.595 43.1817 375.595 69.4078L375.775 133.047M211.577 133.047V70.8749C211.577 57.8536 222.066 47.2165 234.905 47.2165C247.744 47.2165 258.233 57.8536 258.233 70.8749V133.047M200.004 133.047V70.5082C200.004 50.8845 215.555 35.1122 234.905 35.1122C254.254 35.1122 269.806 50.8845 269.806 70.5082V133.231M273.965 43.3651C275.954 41.3477 278.848 40.2473 281.922 40.2473C284.996 40.2473 287.709 41.5311 289.879 43.3651M242.681 22.6411C250.999 9.61974 265.466 1 281.922 1C298.378 1 312.845 9.61974 321.163 22.6411M265.285 33.2782C269.444 28.8766 275.412 26.309 281.922 26.309C288.432 26.309 294.219 29.06 298.559 33.2782M255.339 26.6758C261.668 18.9731 271.253 14.2047 281.922 14.2047C292.591 14.2047 302.175 18.9731 308.505 26.6758M317.547 133.047V72.5255C317.547 66.1066 322.61 60.9714 328.939 60.9714C335.268 60.9714 340.332 66.1066 340.332 72.5255V133.047M305.611 133.047V70.8749C305.611 57.8536 316.1 47.2165 328.939 47.2165C341.778 47.2165 352.267 57.8536 352.267 70.8749V133.047M294.038 133.047V70.5082C294.038 50.8845 309.59 35.1122 328.939 35.1122C348.288 35.1122 363.84 50.8845 363.84 70.5082V133.231M367.999 43.3651C369.989 41.3477 372.882 40.2473 375.956 40.2473C379.03 40.2473 381.743 41.5311 383.913 43.3651M336.534 22.6411C344.853 9.61974 359.319 1 375.775 1C392.231 1 406.698 9.61974 415.017 22.6411M359.319 33.2782C363.479 28.8766 369.446 26.309 375.956 26.309C382.466 26.309 388.253 29.06 392.593 33.2782M349.373 26.6758C355.703 18.9731 365.287 14.2047 375.956 14.2047C386.625 14.2047 396.21 18.9731 402.539 26.6758M411.581 133.047V72.5255C411.581 66.1066 416.644 60.9714 422.973 60.9714C429.303 60.9714 434.366 66.1066 434.366 72.5255V133.047M375.956 133.047V69.4078C375.956 43.1817 396.933 21.9075 422.792 21.9075C448.652 21.9075 469.629 43.1817 469.629 69.4078L469.81 133.047M399.646 133.047V70.8749C399.646 57.8536 410.134 47.2165 422.973 47.2165C435.813 47.2165 446.301 57.8536 446.301 70.8749V133.047M388.072 133.047V70.5082C388.072 50.8845 403.624 35.1122 422.973 35.1122C442.323 35.1122 457.875 50.8845 457.875 70.5082V133.231M462.034 43.3651C464.023 41.3477 466.916 40.2473 469.99 40.2473C473.065 40.2473 475.777 41.5311 477.947 43.3651M430.568 22.6411C438.887 9.61974 453.354 1 469.81 1C486.266 1 500.732 9.61974 509.051 22.6411M453.354 33.2782C457.513 28.8766 463.48 26.309 469.99 26.309C476.501 26.309 482.287 29.06 486.627 33.2782M443.227 26.6758C449.556 18.9731 459.14 14.2047 469.81 14.2047C480.479 14.2047 490.063 18.9731 496.392 26.6758M505.434 133.047V72.5255C505.434 66.1066 510.498 60.9714 516.827 60.9714C523.156 60.9714 528.219 66.1066 528.219 72.5255V133.047M469.99 133.047V69.4078C469.99 43.1817 490.967 21.9075 516.827 21.9075C542.686 21.9075 563.663 43.1817 563.663 69.4078L563.844 133.047M493.499 133.047V70.8749C493.499 57.8536 503.987 47.2165 516.827 47.2165C529.666 47.2165 540.154 57.8536 540.154 70.8749V133.047M481.926 133.047V70.5082C481.926 50.8845 497.477 35.1122 516.827 35.1122C536.176 35.1122 551.728 50.8845 551.728 70.5082V133.231M556.068 43.3651C558.057 41.3477 560.951 40.2473 564.025 40.2473C567.099 40.2473 569.811 41.5311 571.981 43.3651M524.603 22.6411C532.921 9.61974 547.388 1 563.844 1C580.3 1 594.767 9.61974 603.085 22.6411M547.388 33.2782C551.547 28.8766 557.515 26.309 564.025 26.309C570.535 26.309 576.322 29.06 580.662 33.2782M537.261 26.6758C543.59 18.9731 553.175 14.2047 563.844 14.2047C574.513 14.2047 584.097 18.9731 590.427 26.6758M599.468 133.047V72.5255C599.468 66.1066 604.532 60.9714 610.861 60.9714C617.19 60.9714 622.254 66.1066 622.254 72.5255V133.047M564.025 133.047V69.4078C564.025 43.1817 585.002 21.9075 610.861 21.9075C636.72 21.9075 657.697 43.1817 657.697 69.4078L657.878 133.047M587.533 133.047V70.8749C587.533 57.8536 598.022 47.2165 610.861 47.2165C623.7 47.2165 634.189 57.8536 634.189 70.8749V133.047M575.96 133.047V70.5082C575.96 50.8845 591.512 35.1122 610.861 35.1122C630.21 35.1122 645.762 50.8845 645.762 70.5082V133.231M650.102 43.3651C652.091 41.3477 654.985 40.2473 658.059 40.2473C661.133 40.2473 663.846 41.5311 666.016 43.3651M618.637 22.6411C626.955 9.61974 641.422 1 657.878 1C674.334 1 688.801 9.61974 697.119 22.6411M641.241 33.2782C645.401 28.8766 651.368 26.309 657.878 26.309C664.388 26.309 670.175 29.06 674.515 33.2782M631.295 26.6758C637.625 18.9731 647.209 14.2047 657.878 14.2047C668.547 14.2047 678.132 18.9731 684.461 26.6758M693.503 133.047V72.5255C693.503 66.1066 698.566 60.9714 704.895 60.9714C711.224 60.9714 716.288 66.1066 716.288 72.5255V133.047M658.059 133.047V69.4078C658.059 43.1817 679.036 21.9075 704.895 21.9075C730.755 21.9075 751.732 43.1817 751.732 69.4078L751.912 133.047M681.568 133.047V70.8749C681.568 57.8536 692.056 47.2165 704.895 47.2165C717.735 47.2165 728.223 57.8536 728.223 70.8749V133.047M669.994 133.047V70.5082C669.994 50.8845 685.546 35.1122 704.895 35.1122C724.245 35.1122 739.797 50.8845 739.797 70.5082V133.231M743.956 43.3651C745.945 41.3477 748.838 40.2473 751.912 40.2473C754.987 40.2473 757.699 41.5311 759.869 43.3651M712.671 22.6411C720.99 9.61974 735.456 1 751.912 1C768.368 1 782.835 9.61974 791.154 22.6411M735.276 33.2782C739.435 28.8766 745.402 26.309 751.912 26.309C758.422 26.309 764.209 29.06 768.549 33.2782M725.33 26.6758C731.659 18.9731 741.243 14.2047 751.912 14.2047C762.582 14.2047 772.166 18.9731 778.495 26.6758M787.537 133.047V72.5255C787.537 66.1066 792.6 60.9714 798.93 60.9714C805.259 60.9714 810.322 66.1066 810.322 72.5255V133.047M752.093 133.047V69.4078C752.093 43.1817 773.07 21.9075 798.93 21.9075C824.789 21.9075 845.766 43.1817 845.766 69.4078L845.947 133.047L845.947 69.4078C845.947 43.1817 866.924 21.9075 892.783 21.9075C918.642 21.9075 939.619 43.1817 939.619 69.4078L939.8 133.047M775.602 133.047V70.8749C775.602 57.8536 786.09 47.2165 798.93 47.2165C811.769 47.2165 822.257 57.8536 822.257 70.8749V133.047M764.028 133.047V70.5082C764.028 50.8845 779.58 35.1122 798.93 35.1122C818.279 35.1122 833.831 50.8845 833.831 70.5082V133.231M837.99 43.3651C839.979 41.3477 842.872 40.2473 845.947 40.2473C849.021 40.2473 851.733 41.5311 853.903 43.3651M806.705 22.6411C815.024 9.61974 829.491 1 845.947 1C862.403 1 876.869 9.61974 885.188 22.6411M829.31 33.2782C833.469 28.8766 839.437 26.309 845.947 26.309C852.457 26.309 858.243 29.06 862.583 33.2782M819.364 26.6758C825.693 18.9731 835.277 14.2047 845.947 14.2047C856.616 14.2047 866.2 18.9731 872.529 26.6758M881.571 133.047V72.5255C881.571 66.1066 886.635 60.9714 892.964 60.9714C899.293 60.9714 904.356 66.1066 904.356 72.5255V133.047M869.636 133.047V70.8749C869.636 57.8536 880.125 47.2165 892.964 47.2165C905.803 47.2165 916.292 57.8536 916.292 70.8749V133.047M858.063 133.047V70.5082C858.063 50.8845 873.614 35.1122 892.964 35.1122C912.313 35.1122 927.865 50.8845 927.865 70.5082V133.231M932.024 43.3651C934.013 41.3477 936.907 40.2473 939.981 40.2473C943.055 40.2473 945.768 41.5311 947.938 43.3651M900.559 22.6411C908.877 9.61974 923.344 1 939.8 1C956.256 1 970.723 9.61974 979.041 22.6411M923.344 33.2782C927.503 28.8766 933.471 26.309 939.981 26.309C946.491 26.309 952.278 29.06 956.618 33.2782M913.217 26.6758C919.547 18.9731 929.131 14.2047 939.8 14.2047C950.469 14.2047 960.054 18.9731 966.383 26.6758M975.425 133.047V72.5255C975.425 66.1066 980.488 60.9714 986.817 60.9714C993.146 60.9714 998.21 66.1066 998.21 72.5255V133.047M939.981 133.047V69.4078C939.981 43.1817 960.958 21.9075 986.817 21.9075C1012.68 21.9075 1033.65 43.1817 1033.65 69.4078L1033.83 133.047M963.67 133.047V70.8749C963.67 57.8536 974.159 47.2165 986.998 47.2165C999.837 47.2165 1010.33 57.8536 1010.33 70.8749V133.047M952.097 133.047V70.5082C952.097 50.8845 967.649 35.1122 986.998 35.1122C1006.35 35.1122 1021.9 50.8845 1021.9 70.5082V133.231M1026.06 43.3651C1028.05 41.3477 1030.94 40.2473 1034.02 40.2473C1037.09 40.2473 1039.8 41.5311 1041.97 43.3651M994.593 22.6411C1002.91 9.61974 1017.38 1 1033.83 1C1050.29 1 1064.76 9.61974 1073.08 22.6411M1017.38 33.2782C1021.54 28.8766 1027.51 26.309 1034.02 26.309C1040.53 26.309 1046.31 29.06 1050.65 33.2782M1007.25 26.6758C1013.58 18.9731 1023.17 14.2047 1033.83 14.2047C1044.5 14.2047 1054.09 18.9731 1060.42 26.6758M1069.46 133.047V72.5255C1069.46 66.1066 1074.52 60.9714 1080.85 60.9714C1087.18 60.9714 1092.24 66.1066 1092.24 72.5255V133.047M1034.02 133.047V69.4078C1034.02 43.1817 1054.99 21.9075 1080.85 21.9075C1106.71 21.9075 1127.69 43.1817 1127.69 69.4078L1127.87 133.047M1057.52 133.047V70.8749C1057.52 57.8536 1068.01 47.2165 1080.85 47.2165C1093.69 47.2165 1104.18 57.8536 1104.18 70.8749V133.047M1045.95 133.047V70.5082C1045.95 50.8845 1061.5 35.1122 1080.85 35.1122C1100.2 35.1122 1115.75 50.8845 1115.75 70.5082V133.231M1120.09 43.3651C1122.08 41.3477 1124.98 40.2473 1128.05 40.2473C1131.12 40.2473 1133.84 41.5311 1136.01 43.3651M1088.63 22.6411C1096.95 9.61974 1111.41 1 1127.87 1C1144.32 1 1158.79 9.61974 1167.11 22.6411M1111.41 33.2782C1115.57 28.8766 1121.54 26.309 1128.05 26.309C1134.56 26.309 1140.35 29.06 1144.69 33.2782M1101.29 26.6758C1107.62 18.9731 1117.2 14.2047 1127.87 14.2047C1138.54 14.2047 1148.12 18.9731 1154.45 26.6758M1163.49 133.047V72.5255C1163.49 66.1066 1168.56 60.9714 1174.89 60.9714C1181.21 60.9714 1186.28 66.1066 1186.28 72.5255V133.047M1128.05 133.047V69.4078C1128.05 43.1817 1149.03 21.9075 1174.89 21.9075C1200.75 21.9075 1221.72 43.1817 1221.72 69.4078L1221.9 133.047M1151.56 133.047V70.8749C1151.56 57.8536 1162.05 47.2165 1174.89 47.2165C1187.73 47.2165 1198.21 57.8536 1198.21 70.8749V133.047M1139.98 133.047V70.5082C1139.98 50.8845 1155.54 35.1122 1174.89 35.1122C1194.24 35.1122 1209.79 50.8845 1209.79 70.5082V133.231M1214.13 43.3651C1216.12 41.3477 1219.01 40.2473 1222.08 40.2473C1225.16 40.2473 1227.87 41.5311 1230.04 43.3651M1182.66 22.6411C1190.98 9.61974 1205.45 1 1221.9 1C1238.36 1 1252.83 9.61974 1261.14 22.6411M1205.27 33.2782C1209.43 28.8766 1215.39 26.309 1221.9 26.309C1228.41 26.309 1234.2 29.06 1238.54 33.2782M1195.32 26.6758C1201.65 18.9731 1211.23 14.2047 1221.9 14.2047C1232.57 14.2047 1242.16 18.9731 1248.49 26.6758M1257.53 133.047V72.5255C1257.53 66.1066 1262.59 60.9714 1268.92 60.9714C1275.25 60.9714 1280.31 66.1066 1280.31 72.5255V133.047M1222.08 133.047V69.4078C1222.08 43.1817 1243.06 21.9075 1268.92 21.9075C1294.78 21.9075 1315.76 43.1817 1315.76 69.4078L1315.94 133.047V69.4078C1315.94 43.1817 1336.91 21.9075 1362.77 21.9075C1388.63 21.9075 1409.61 43.1817 1409.61 69.4078L1409.79 133.047M1245.59 133.047V70.8749C1245.59 57.8536 1256.08 47.2165 1268.92 47.2165C1281.76 47.2165 1292.25 57.8536 1292.25 70.8749V133.047M1234.02 133.047V70.5082C1234.02 50.8845 1249.57 35.1122 1268.92 35.1122C1288.27 35.1122 1303.82 50.8845 1303.82 70.5082V133.231M1307.98 43.3651C1309.97 41.3477 1312.86 40.2473 1315.94 40.2473C1319.01 40.2473 1321.72 41.5311 1323.89 43.3651M1276.7 22.6411C1285.01 9.61974 1299.48 1 1315.94 1C1332.39 1 1346.86 9.61974 1355.18 22.6411M1299.3 33.2782C1303.46 28.8766 1309.43 26.309 1315.94 26.309C1322.45 26.309 1328.23 29.06 1332.57 33.2782M1289.35 26.6758C1295.68 18.9731 1305.27 14.2047 1315.94 14.2047C1326.61 14.2047 1336.19 18.9731 1342.52 26.6758M1351.56 133.047V72.5255C1351.56 66.1066 1356.62 60.9714 1362.95 60.9714C1369.28 60.9714 1374.35 66.1066 1374.35 72.5255V133.047M1339.63 133.047V70.8749C1339.63 57.8536 1350.11 47.2165 1362.95 47.2165C1375.79 47.2165 1386.28 57.8536 1386.28 70.8749V133.047M1328.05 133.047V70.5082C1328.05 50.8845 1343.6 35.1122 1362.95 35.1122C1382.3 35.1122 1397.86 50.8845 1397.86 70.5082V133.231M1402.01 43.3651C1404 41.3477 1406.9 40.2473 1409.97 40.2473C1413.05 40.2473 1415.76 41.5311 1417.93 43.3651M1370.55 22.6411C1378.87 9.61974 1393.33 1 1409.79 1C1426.25 1 1440.71 9.61974 1449.03 22.6411M1393.33 33.2782C1397.49 28.8766 1403.46 26.309 1409.97 26.309C1416.48 26.309 1422.27 29.06 1426.61 33.2782M1383.39 26.6758C1389.72 18.9731 1399.3 14.2047 1409.97 14.2047C1420.64 14.2047 1430.22 18.9731 1436.55 26.6758M1445.6 133.047V72.5255C1445.6 66.1066 1450.66 60.9714 1456.99 60.9714C1463.32 60.9714 1468.38 66.1066 1468.38 72.5255V133.047M1409.97 133.047V69.4078C1409.97 43.1817 1430.95 21.9075 1456.81 21.9075C1482.67 21.9075 1503.64 43.1817 1503.64 69.4078L1503.82 133.047M1433.66 133.047V70.8749C1433.66 57.8536 1444.15 47.2165 1456.99 47.2165C1469.83 47.2165 1480.32 57.8536 1480.32 70.8749V133.047M1422.09 133.047V70.5082C1422.09 50.8845 1437.64 35.1122 1456.99 35.1122C1476.34 35.1122 1491.89 50.8845 1491.89 70.5082V133.231M1496.05 43.3651C1498.04 41.3477 1500.93 40.2473 1504.01 40.2473C1507.08 40.2473 1509.79 41.5311 1511.96 43.3651M1464.58 22.6411C1472.9 9.61974 1487.37 1 1503.82 1C1520.28 1 1534.75 9.61974 1543.07 22.6411M1487.37 33.2782C1491.53 28.8766 1497.5 26.309 1504.01 26.309C1510.52 26.309 1516.3 29.06 1520.64 33.2782M1477.24 26.6758C1483.57 18.9731 1493.16 14.2047 1503.82 14.2047C1514.49 14.2047 1524.08 18.9731 1530.41 26.6758M1539.45 133.047V72.5255C1539.45 66.1066 1544.51 60.9714 1550.84 60.9714C1557.17 60.9714 1562.23 66.1066 1562.23 72.5255V133.047M1504.01 133.047V69.4078C1504.01 43.1817 1524.98 21.9075 1550.84 21.9075C1576.7 21.9075 1597.68 43.1817 1597.68 69.4078L1597.86 133.047M1527.51 133.047V70.8749C1527.51 57.8536 1538 47.2165 1550.84 47.2165C1563.68 47.2165 1574.17 57.8536 1574.17 70.8749V133.047M1516.12 133.047V70.5082C1516.12 50.8845 1531.67 35.1122 1551.02 35.1122C1570.37 35.1122 1585.92 50.8845 1585.92 70.5082V133.231M1590.08 43.3651C1592.07 41.3477 1594.97 40.2473 1598.04 40.2473C1601.11 40.2473 1603.83 41.5311 1606 43.3651M1558.62 22.6411C1566.94 9.61974 1581.4 1 1597.86 1C1614.32 1 1628.78 9.61974 1637.1 22.6411M1581.4 33.2782C1585.56 28.8766 1591.53 26.309 1598.04 26.309C1604.55 26.309 1610.34 29.06 1614.68 33.2782M1571.28 26.6758C1577.61 18.9731 1587.19 14.2047 1597.86 14.2047C1608.53 14.2047 1618.11 18.9731 1624.44 26.6758M1633.48 133.047V72.5255C1633.48 66.1066 1638.55 60.9714 1644.88 60.9714C1651.21 60.9714 1656.27 66.1066 1656.27 72.5255V133.047M1598.04 133.047V69.4078C1598.04 43.1817 1619.02 21.9075 1644.88 21.9075C1670.74 21.9075 1691.71 43.1817 1691.71 69.4078L1691.89 133.047M1621.55 133.047V70.8749C1621.55 57.8536 1632.04 47.2165 1644.88 47.2165C1657.72 47.2165 1668.2 57.8536 1668.2 70.8749V133.047M1609.97 133.047V70.5082C1609.97 50.8845 1625.53 35.1122 1644.88 35.1122C1664.23 35.1122 1679.78 50.8845 1679.78 70.5082V133.231M1684.12 43.3651C1686.11 41.3477 1689 40.2473 1692.07 40.2473C1695.15 40.2473 1697.86 41.5311 1700.03 43.3651M1652.65 22.6411C1660.97 9.61974 1675.44 1 1691.89 1C1708.35 1 1722.82 9.61974 1731.13 22.6411M1675.44 33.2782C1679.6 28.8766 1685.56 26.309 1692.07 26.309C1698.58 26.309 1704.37 29.06 1708.71 33.2782M1665.31 26.6758C1671.64 18.9731 1681.22 14.2047 1691.89 14.2047C1702.56 14.2047 1712.15 18.9731 1718.48 26.6758M1727.52 133.047V72.5255C1727.52 66.1066 1732.58 60.9714 1738.91 60.9714C1745.24 60.9714 1750.3 66.1066 1750.3 72.5255V133.047M1692.07 133.047V69.4078C1692.07 43.1817 1713.05 21.9075 1738.91 21.9075C1764.77 21.9075 1785.75 43.1817 1785.75 69.4078L1785.93 133.047M1715.58 133.047V70.8749C1715.58 57.8536 1726.07 47.2165 1738.91 47.2165C1751.75 47.2165 1762.24 57.8536 1762.24 70.8749V133.047M1704.01 133.047V70.5082C1704.01 50.8845 1719.56 35.1122 1738.91 35.1122C1758.26 35.1122 1773.81 50.8845 1773.81 70.5082V133.231M1777.97 43.3651C1779.96 41.3477 1782.85 40.2473 1785.93 40.2473C1789 40.2473 1791.71 41.5311 1793.88 43.3651M1746.69 22.6411C1755 9.61974 1769.47 1 1785.93 1C1802.38 1 1816.85 9.61974 1825.17 22.6411M1769.29 33.2782C1773.45 28.8766 1779.42 26.309 1785.93 26.309C1792.44 26.309 1798.22 29.06 1802.56 33.2782M1759.34 26.6758C1765.67 18.9731 1775.26 14.2047 1785.93 14.2047C1796.6 14.2047 1806.18 18.9731 1812.51 26.6758M1821.55 133.047V72.5255C1821.55 66.1066 1826.62 60.9714 1832.94 60.9714C1839.27 60.9714 1844.34 66.1066 1844.34 72.5255V133.047M1786.11 133.047V69.4078C1786.11 43.1817 1807.09 21.9075 1832.94 21.9075C1858.8 21.9075 1879.78 43.1817 1879.78 69.4078L1879.96 133.047V69.4078C1879.96 43.1817 1900.94 21.9075 1926.8 21.9075C1952.66 21.9075 1973.63 43.1817 1973.63 69.4078L1973.82 133.047M1809.62 133.047V70.8749C1809.62 57.8536 1820.11 47.2165 1832.94 47.2165C1845.78 47.2165 1856.27 57.8536 1856.27 70.8749V133.047M1798.04 133.047V70.5082C1798.04 50.8845 1813.6 35.1122 1832.94 35.1122C1852.29 35.1122 1867.85 50.8845 1867.85 70.5082V133.231M1872 43.3651C1873.99 41.3477 1876.89 40.2473 1879.96 40.2473C1883.04 40.2473 1885.75 41.5311 1887.92 43.3651M1840.72 22.6411C1849.04 9.61974 1863.51 1 1879.96 1C1896.42 1 1910.88 9.61974 1919.2 22.6411M1863.32 33.2782C1867.48 28.8766 1873.45 26.309 1879.96 26.309C1886.47 26.309 1892.26 29.06 1896.6 33.2782M1853.38 26.6758C1859.71 18.9731 1869.29 14.2047 1879.96 14.2047C1890.63 14.2047 1900.22 18.9731 1906.54 26.6758M1915.59 133.047V72.5255C1915.59 66.1066 1920.65 60.9714 1926.98 60.9714C1933.31 60.9714 1938.37 66.1066 1938.37 72.5255V133.047M1903.65 133.047V70.8749C1903.65 57.8536 1914.14 47.2165 1926.98 47.2165C1939.82 47.2165 1950.31 57.8536 1950.31 70.8749V133.047M1892.08 133.047V70.5082C1892.08 50.8845 1907.63 35.1122 1926.98 35.1122C1946.33 35.1122 1961.88 50.8845 1961.88 70.5082V133.231M1966.04 43.3651C1968.03 41.3477 1970.92 40.2473 1974 40.2473C1977.07 40.2473 1979.78 41.5311 1981.95 43.3651M1934.57 22.6411C1942.89 9.61974 1957.36 1 1973.82 1C1990.27 1 2004.74 9.61974 2013.06 22.6411M1957.36 33.2782C1961.52 28.8766 1967.49 26.309 1974 26.309C1980.51 26.309 1986.29 29.06 1990.63 33.2782M1947.41 26.6758C1953.74 18.9731 1963.33 14.2047 1974 14.2047C1984.67 14.2047 1994.25 18.9731 2000.58 26.6758M2009.44 133.047V72.5255C2009.44 66.1066 2014.5 60.9714 2020.83 60.9714C2027.16 60.9714 2032.23 66.1066 2032.23 72.5255V133.047M1974 133.047V69.4078C1974 43.1817 1994.97 21.9075 2020.83 21.9075C2046.69 21.9075 2067.67 43.1817 2067.67 69.4078L2067.85 133.047M1997.69 133.047V70.8749C1997.69 57.8536 2008.17 47.2165 2021.01 47.2165C2033.85 47.2165 2044.34 57.8536 2044.34 70.8749V133.047M1986.11 133.047V70.5082C1986.11 50.8845 2001.66 35.1122 2021.01 35.1122C2040.36 35.1122 2055.91 50.8845 2055.91 70.5082V133.231" stroke="white" stroke-opacity="0.4" stroke-width="1.3" stroke-miterlimit="10"/>
</g>
<defs>
<clipPath id="clip0_489_386">
<rect width="1923" height="72" fill="white"/>
</clipPath>
</defs>
</svg>
