<svg width="391" height="37" viewBox="0 0 391 37" fill="none" xmlns="http://www.w3.org/2000/svg">
<g clip-path="url(#clip0_532_454)">
<path d="M224.187 19.1065C223.911 19.1065 223.687 18.8827 223.687 18.6065C223.687 18.3304 223.911 18.1065 224.187 18.1065L224.187 18.6065L224.187 19.1065ZM469.5 18.1049C469.776 18.1049 470 18.3287 470 18.6049C470 18.881 469.776 19.1049 469.5 19.1049L469.5 18.6049L469.5 18.1049ZM-78.5 19.0185C-78.7761 19.0185 -79 18.7946 -79 18.5185C-79 18.2424 -78.7761 18.0185 -78.5 18.0185V18.5185V19.0185ZM178.412 13.8528L178.055 14.2026C178.051 14.1985 178.047 14.1943 178.043 14.1901L178.412 13.8528ZM177.896 22.9975C178.096 22.8075 178.413 22.8159 178.603 23.0163C178.793 23.2166 178.784 23.5331 178.584 23.7231L178.24 23.3603L177.896 22.9975ZM186.085 28.2021L185.727 27.8523L185.727 27.8523L186.085 28.2021ZM192.377 34.6285L192.02 34.2787L192.02 34.2787L192.377 34.6285ZM205.136 8.74688L205.493 9.0967L205.493 9.0967L205.136 8.74688ZM198.843 2.32049L199.2 2.67031L199.2 2.67031L198.843 2.32049ZM178.683 23.6221C178.49 23.8194 178.174 23.8227 177.976 23.6295C177.779 23.4363 177.776 23.1197 177.969 22.9224L178.326 23.2723L178.683 23.6221ZM212.722 13.8528L213.091 14.1902L213.082 14.1992L212.722 13.8528ZM212.55 23.7231C212.35 23.5331 212.341 23.2166 212.531 23.0163C212.721 22.8159 213.038 22.8075 213.238 22.9975L212.894 23.3603L212.55 23.7231ZM205.136 28.2021L205.493 27.8523L205.493 27.8523L205.136 28.2021ZM198.843 34.6285L199.2 34.2787L199.2 34.2787L198.843 34.6285ZM195.296 31.7211C195.103 31.5238 195.106 31.2072 195.303 31.014C195.501 30.8208 195.817 30.8242 196.011 31.0215L195.653 31.3713L195.296 31.7211ZM186.085 8.74688L185.727 9.0967L185.727 9.0967L186.085 8.74688ZM192.377 2.32049L192.735 1.97066L192.735 1.97066L192.377 2.32049ZM213.251 22.9224C213.445 23.1197 213.441 23.4363 213.244 23.6295C213.047 23.8227 212.73 23.8194 212.537 23.6221L212.894 23.2723L213.251 22.9224ZM224.187 18.6065L224.187 18.1065L469.5 18.1049L469.5 18.6049L469.5 19.1049L224.187 19.1065L224.187 18.6065ZM-78.5 18.5185V18.0185H166.947V18.5185V19.0185H-78.5V18.5185ZM195.567 31.3713L195.211 31.0202L207.883 18.1675L208.239 18.5185L208.595 18.8695L195.923 31.7223L195.567 31.3713ZM178.412 13.8528L178.043 14.1901C176.93 12.9721 175.339 12.24 173.585 12.24V11.74V11.24C175.624 11.24 177.481 12.0925 178.782 13.5155L178.412 13.8528ZM173.585 11.74V12.24C170.246 12.24 167.447 15.0036 167.447 18.5185H166.947H166.447C166.447 14.4626 169.683 11.24 173.585 11.24V11.74ZM166.947 18.5185H167.447C167.447 22.0377 170.164 24.797 173.585 24.797V25.297V25.797C169.592 25.797 166.447 22.5701 166.447 18.5185H166.947ZM173.585 25.297V24.797C175.247 24.797 176.766 24.0691 177.896 22.9975L178.24 23.3603L178.584 23.7231C177.3 24.9404 175.544 25.797 173.585 25.797V25.297ZM186.085 28.2021L186.442 28.5519C184.908 30.1182 184.908 32.7124 186.442 34.2787L186.085 34.6285L185.727 34.9783C183.813 33.0233 183.813 29.8073 185.727 27.8523L186.085 28.2021ZM186.085 34.6285L186.442 34.2787C187.97 35.8391 190.492 35.8391 192.02 34.2787L192.377 34.6285L192.735 34.9783C190.815 36.9392 187.648 36.9392 185.727 34.9783L186.085 34.6285ZM192.377 34.6285L192.02 34.2787L195.21 31.0215L195.567 31.3713L195.924 31.7211L192.735 34.9783L192.377 34.6285ZM205.136 8.74688L204.779 8.39705C206.312 6.83078 206.312 4.23659 204.779 2.67031L205.136 2.32049L205.493 1.97066C207.407 3.9257 207.407 7.14167 205.493 9.0967L205.136 8.74688ZM205.136 2.32049L204.779 2.67031C203.251 1.10989 200.728 1.10989 199.2 2.67031L198.843 2.32049L198.486 1.97066C200.406 0.00977389 203.573 0.00977389 205.493 1.97066L205.136 2.32049ZM198.843 2.32049L199.2 2.67031L183.339 18.8683L182.981 18.5185L182.624 18.1687L198.486 1.97066L198.843 2.32049ZM178.326 23.2723L177.969 22.9224L182.624 18.1687L182.981 18.5185L183.339 18.8683L178.683 23.6221L178.326 23.2723ZM182.981 18.5185L182.624 18.8683L178.055 14.2026L178.412 13.8528L178.77 13.5029L183.339 18.1687L182.981 18.5185ZM195.567 31.3713L195.21 31.7211L182.624 18.8683L182.981 18.5185L183.339 18.1687L195.924 31.0215L195.567 31.3713ZM212.722 13.8528L212.353 13.5155C213.653 12.0925 215.511 11.24 217.549 11.24V11.74V12.24C215.795 12.24 214.204 12.972 213.091 14.1901L212.722 13.8528ZM217.549 11.74V11.24C221.452 11.24 224.687 14.4626 224.687 18.5185H224.187H223.687C223.687 15.0036 220.888 12.24 217.549 12.24V11.74ZM224.187 18.5185H224.687C224.687 22.5701 221.542 25.797 217.549 25.797V25.297V24.797C220.97 24.797 223.687 22.0377 223.687 18.5185H224.187ZM217.549 25.297V25.797C215.59 25.797 213.834 24.9404 212.55 23.7231L212.894 23.3603L213.238 22.9975C214.368 24.0691 215.887 24.797 217.549 24.797V25.297ZM205.136 28.2021L205.493 27.8523C207.407 29.8073 207.407 33.0233 205.493 34.9783L205.136 34.6285L204.779 34.2787C206.312 32.7124 206.312 30.1182 204.779 28.5519L205.136 28.2021ZM205.136 34.6285L205.493 34.9783C203.573 36.9392 200.406 36.9392 198.486 34.9783L198.843 34.6285L199.2 34.2787C200.728 35.8391 203.251 35.8391 204.779 34.2787L205.136 34.6285ZM198.843 34.6285L198.486 34.9783L195.296 31.7211L195.653 31.3713L196.011 31.0215L199.2 34.2787L198.843 34.6285ZM186.085 8.74688L185.727 9.0967C183.813 7.14167 183.813 3.9257 185.727 1.97066L186.085 2.32049L186.442 2.67031C184.908 4.23659 184.908 6.83078 186.442 8.39705L186.085 8.74688ZM186.085 2.32049L185.727 1.97066C187.648 0.00977389 190.815 0.00977389 192.735 1.97066L192.377 2.32049L192.02 2.67031C190.492 1.10989 187.97 1.10989 186.442 2.67031L186.085 2.32049ZM192.377 2.32049L192.735 1.97066L208.596 18.1687L208.239 18.5185L207.882 18.8683L192.02 2.67031L192.377 2.32049ZM212.894 23.2723L212.537 23.6221L207.882 18.8683L208.239 18.5185L208.596 18.1687L213.251 22.9224L212.894 23.2723ZM208.239 18.5185L207.878 18.1721L212.361 13.5064L212.722 13.8528L213.082 14.1992L208.6 18.8649L208.239 18.5185ZM205.136 8.74688L205.493 9.0967L186.442 28.5519L186.085 28.2021L185.727 27.8523L204.779 8.39705L205.136 8.74688ZM186.085 8.74688L186.442 8.39705L205.493 27.8523L205.136 28.2021L204.779 28.5519L185.727 9.0967L186.085 8.74688Z" fill="#72583E"/>
</g>
<defs>
<clipPath id="clip0_532_454">
<rect width="391" height="36.949" fill="white"/>
</clipPath>
</defs>
</svg>
