<svg width="391" height="37" viewBox="0 0 391 37" fill="none" xmlns="http://www.w3.org/2000/svg">
<path d="M220.234 17.8737C219.958 17.8737 219.734 18.0975 219.734 18.3737C219.734 18.6498 219.958 18.8737 220.234 18.8737L220.234 18.3737L220.234 17.8737ZM390.483 18.8753C390.76 18.8753 390.983 18.6514 390.983 18.3753C390.983 18.0991 390.76 17.8753 390.483 17.8753L390.483 18.3753L390.483 18.8753ZM0.516602 17.9579C0.240459 17.9579 0.0166016 18.1817 0.0166016 18.4579C0.0166016 18.734 0.240459 18.9579 0.516602 18.9579V18.4579V17.9579ZM176.505 22.9203L176.147 22.5706C176.143 22.5747 176.139 22.5789 176.136 22.5831L176.505 22.9203ZM175.996 14.1897C176.196 14.3798 176.513 14.3716 176.703 14.1714C176.893 13.9711 176.885 13.6546 176.684 13.4645L176.34 13.8271L175.996 14.1897ZM183.834 9.19634L183.477 9.54596L183.477 9.54596L183.834 9.19634ZM189.846 3.05005L190.203 2.70043L190.203 2.70043L189.846 3.05005ZM202.034 27.8036L202.392 27.454L202.392 27.454L202.034 27.8036ZM196.023 33.9499L196.38 33.6003L196.38 33.6003L196.023 33.9499ZM176.78 13.5617C176.587 13.3643 176.27 13.3608 176.073 13.5539C175.875 13.7469 175.872 14.0635 176.065 14.2609L176.422 13.9113L176.78 13.5617ZM209.281 22.9203L209.651 22.583L209.642 22.574L209.281 22.9203ZM209.102 13.4645C208.902 13.6546 208.893 13.9711 209.083 14.1714C209.274 14.3716 209.59 14.3798 209.79 14.1897L209.446 13.8271L209.102 13.4645ZM202.034 9.19634L202.392 9.54596L202.392 9.54596L202.034 9.19634ZM196.023 3.05005L196.38 3.39967L196.38 3.39967L196.023 3.05005ZM192.618 5.81567C192.425 6.01308 192.428 6.32964 192.626 6.52273C192.823 6.71582 193.14 6.71232 193.333 6.51491L192.975 6.16529L192.618 5.81567ZM183.834 27.8036L183.477 27.454L183.477 27.454L183.834 27.8036ZM189.846 33.9499L190.203 34.2995L190.203 34.2995L189.846 33.9499ZM209.803 14.2609C209.997 14.0635 209.993 13.747 209.796 13.5539C209.598 13.3608 209.282 13.3643 209.089 13.5617L209.446 13.9113L209.803 14.2609ZM220.234 18.3737L220.234 18.8737L390.483 18.8753L390.483 18.3753L390.483 17.8753L220.234 17.8737L220.234 18.3737ZM0.516602 18.4579V18.9579H165.552V18.4579V17.9579H0.516602V18.4579ZM192.893 6.16529L192.537 6.51613L204.643 18.8087L204.999 18.4579L205.355 18.107L193.249 5.81445L192.893 6.16529ZM176.505 22.9203L176.136 22.5831C175.076 23.7436 173.563 24.4409 171.893 24.4409V24.9409V25.4409C173.847 25.4409 175.628 24.6228 176.874 23.2574L176.505 22.9203ZM171.893 24.9409V24.4409C168.717 24.4409 166.052 21.8084 166.052 18.4579H165.552H165.052C165.052 22.3482 168.152 25.4409 171.893 25.4409V24.9409ZM165.552 18.4579H166.052C166.052 15.1031 168.638 12.4748 171.893 12.4748V11.9748V11.4748C168.065 11.4748 165.052 14.5718 165.052 18.4579H165.552ZM171.893 11.9748V12.4748C173.474 12.4748 174.92 13.1681 175.996 14.1897L176.34 13.8271L176.684 13.4645C175.455 12.2971 173.771 11.4748 171.893 11.4748V11.9748ZM183.834 9.19634L184.192 8.84672C182.735 7.35713 182.735 4.88925 184.192 3.39967L183.834 3.05005L183.477 2.70043C181.64 4.57867 181.64 7.66771 183.477 9.54596L183.834 9.19634ZM183.834 3.05005L184.192 3.39967C185.643 1.91626 188.038 1.91626 189.489 3.39967L189.846 3.05005L190.203 2.70043C188.36 0.816004 185.32 0.816004 183.477 2.70043L183.834 3.05005ZM189.846 3.05005L189.489 3.39967L192.536 6.51491L192.893 6.16529L193.25 5.81567L190.203 2.70043L189.846 3.05005ZM202.034 27.8036L201.677 28.1532C203.134 29.6428 203.134 32.1107 201.677 33.6003L202.034 33.9499L202.392 34.2995C204.229 32.4213 204.229 29.3322 202.392 27.454L202.034 27.8036ZM202.034 33.9499L201.677 33.6003C200.226 35.0837 197.831 35.0837 196.38 33.6003L196.023 33.9499L195.665 34.2995C197.508 36.1839 200.549 36.1839 202.392 34.2995L202.034 33.9499ZM196.023 33.9499L196.38 33.6003L181.227 18.1083L180.87 18.4579L180.512 18.8075L195.665 34.2995L196.023 33.9499ZM176.422 13.9113L176.065 14.2609L180.512 18.8075L180.87 18.4579L181.227 18.1082L176.78 13.5617L176.422 13.9113ZM180.87 18.4579L180.512 18.1083L176.147 22.5706L176.505 22.9203L176.862 23.2699L181.227 18.8075L180.87 18.4579ZM192.893 6.16529L192.536 5.81567L180.512 18.1083L180.87 18.4579L181.227 18.8075L193.25 6.51491L192.893 6.16529ZM209.281 22.9203L208.912 23.2574C210.159 24.6228 211.939 25.4409 213.893 25.4409V24.9409V24.4409C212.224 24.4409 210.71 23.7436 209.651 22.5831L209.281 22.9203ZM213.893 24.9409V25.4409C217.634 25.4409 220.734 22.3482 220.734 18.4579H220.234H219.734C219.734 21.8084 217.07 24.4409 213.893 24.4409V24.9409ZM220.234 18.4579H220.734C220.734 14.5718 217.721 11.4748 213.893 11.4748V11.9748V12.4748C217.148 12.4748 219.734 15.1031 219.734 18.4579H220.234ZM213.893 11.9748V11.4748C212.015 11.4748 210.331 12.2971 209.102 13.4645L209.446 13.8271L209.79 14.1897C210.866 13.1681 212.312 12.4748 213.893 12.4748V11.9748ZM202.034 9.19634L202.392 9.54596C204.229 7.66771 204.229 4.57867 202.392 2.70043L202.034 3.05005L201.677 3.39967C203.134 4.88925 203.134 7.35713 201.677 8.84672L202.034 9.19634ZM202.034 3.05005L202.392 2.70043C200.549 0.816004 197.508 0.816004 195.665 2.70043L196.023 3.05005L196.38 3.39967C197.831 1.91626 200.226 1.91626 201.677 3.39967L202.034 3.05005ZM196.023 3.05005L195.665 2.70043L192.618 5.81567L192.975 6.16529L193.333 6.51491L196.38 3.39967L196.023 3.05005ZM183.834 27.8036L183.477 27.454C181.64 29.3322 181.64 32.4213 183.477 34.2995L183.834 33.9499L184.192 33.6003C182.735 32.1107 182.735 29.6428 184.192 28.1532L183.834 27.8036ZM183.834 33.9499L183.477 34.2995C185.32 36.1839 188.36 36.1839 190.203 34.2995L189.846 33.9499L189.489 33.6003C188.038 35.0837 185.643 35.0837 184.192 33.6003L183.834 33.9499ZM189.846 33.9499L190.203 34.2995L205.356 18.8075L204.999 18.4579L204.641 18.1083L189.489 33.6003L189.846 33.9499ZM209.446 13.9113L209.089 13.5617L204.641 18.1082L204.999 18.4579L205.356 18.8075L209.803 14.2609L209.446 13.9113ZM204.999 18.4579L204.638 18.8041L208.921 23.2665L209.281 22.9203L209.642 22.574L205.36 18.1117L204.999 18.4579ZM202.034 27.8036L202.392 27.454L184.192 8.84672L183.834 9.19634L183.477 9.54596L201.677 28.1532L202.034 27.8036ZM183.834 27.8036L184.192 28.1532L202.392 9.54596L202.034 9.19634L201.677 8.84672L183.477 27.454L183.834 27.8036Z" fill="#72583E"/>
</svg>
