<svg width="728" height="23" viewBox="0 0 728 23" fill="none" xmlns="http://www.w3.org/2000/svg">
<path d="M382.593 10.9169C382.317 10.9169 382.093 11.1407 382.093 11.4169C382.093 11.693 382.317 11.9169 382.593 11.9169V11.4169V10.9169ZM727.5 11.9169C727.776 11.9169 728 11.693 728 11.4169C728 11.1407 727.776 10.9169 727.5 10.9169V11.4169V11.9169ZM0.5 10.9723C0.223858 10.9723 0 11.1961 0 11.4723C0 11.7484 0.223858 11.9723 0.5 11.9723V11.4723V10.9723ZM352.693 14.4093L352.342 14.0529C352.338 14.057 352.334 14.0611 352.33 14.0653L352.693 14.4093ZM352.243 8.79353C352.447 8.97981 352.763 8.96557 352.949 8.76172C353.135 8.55787 353.121 8.24161 352.917 8.05533L352.58 8.42443L352.243 8.79353ZM357.704 5.37657L357.354 5.73295L357.354 5.73295L357.704 5.37657ZM361.815 1.33123L362.166 0.974861L362.166 0.974861L361.815 1.33123ZM370.149 17.6234L370.5 17.2671L370.5 17.2671L370.149 17.6234ZM366.038 21.6688L365.688 22.0251L365.688 22.0251L366.038 21.6688ZM352.987 8.12347C352.79 7.92978 352.474 7.93232 352.28 8.12914C352.086 8.32596 352.089 8.64253 352.286 8.83622L352.636 8.47985L352.987 8.12347ZM375.104 14.4093L375.467 14.0651L375.458 14.0563L375.104 14.4093ZM374.88 8.05533C374.676 8.24161 374.661 8.55787 374.848 8.76172C375.034 8.96557 375.35 8.97981 375.554 8.79353L375.217 8.42443L374.88 8.05533ZM370.149 5.37657L370.5 5.73295L370.5 5.73295L370.149 5.37657ZM366.038 1.33123L365.688 0.974861L365.688 0.974861L366.038 1.33123ZM363.604 3.02524C363.407 3.21893 363.405 3.5355 363.598 3.73232C363.792 3.92914 364.109 3.93168 364.305 3.73799L363.955 3.38161L363.604 3.02524ZM357.704 17.6234L357.354 17.2671L357.354 17.2671L357.704 17.6234ZM361.815 21.6688L362.166 22.0251L362.166 22.0251L361.815 21.6688ZM375.568 8.83622C375.764 8.64253 375.767 8.32596 375.573 8.12914C375.379 7.93232 375.063 7.92978 374.866 8.12347L375.217 8.47985L375.568 8.83622ZM382.593 11.4169V11.9169H727.5V11.4169V10.9169H382.593V11.4169ZM0.5 11.4723V11.9723H345.203V11.4723V10.9723H0.5V11.4723ZM363.898 3.38161L363.549 3.73918L371.827 11.8299L372.176 11.4723L372.526 11.1147L364.248 3.02404L363.898 3.38161ZM352.693 14.4093L352.33 14.0653C351.637 14.7958 350.642 15.2393 349.539 15.2393V15.7393V16.2393C350.914 16.2393 352.172 15.6853 353.055 14.7534L352.693 14.4093ZM349.539 15.7393V15.2393C347.439 15.2393 345.703 13.5673 345.703 11.4723H345.203H344.703C344.703 14.143 346.91 16.2393 349.539 16.2393V15.7393ZM345.203 11.4723H345.703C345.703 9.37309 347.386 7.70529 349.539 7.70529V7.20529V6.70529C346.849 6.70529 344.703 8.80575 344.703 11.4723H345.203ZM349.539 7.20529V7.70529C350.579 7.70529 351.533 8.14456 352.243 8.79353L352.58 8.42443L352.917 8.05533C352.051 7.26351 350.864 6.70529 349.539 6.70529V7.20529ZM357.704 5.37657L358.055 5.0202C357.128 4.10778 357.128 2.60003 358.055 1.68761L357.704 1.33123L357.354 0.974861C356.028 2.27906 356.028 4.42875 357.354 5.73295L357.704 5.37657ZM357.704 1.33123L358.055 1.68761C358.987 0.770797 360.533 0.770797 361.464 1.68761L361.815 1.33123L362.166 0.974861C360.845 -0.324954 358.674 -0.324954 357.354 0.974861L357.704 1.33123ZM361.815 1.33123L361.464 1.68761L363.548 3.73799L363.898 3.38161L364.249 3.02524L362.166 0.974861L361.815 1.33123ZM370.149 17.6234L369.798 17.9798C370.725 18.8922 370.725 20.4 369.798 21.3124L370.149 21.6688L370.5 22.0251C371.825 20.7209 371.825 18.5713 370.5 17.2671L370.149 17.6234ZM370.149 21.6688L369.798 21.3124C368.867 22.2292 367.321 22.2292 366.389 21.3124L366.038 21.6688L365.688 22.0251C367.008 23.325 369.179 23.325 370.5 22.0251L370.149 21.6688ZM366.038 21.6688L366.389 21.3124L356.028 11.1159L355.677 11.4723L355.326 11.8287L365.688 22.0251L366.038 21.6688ZM352.636 8.47985L352.286 8.83622L355.326 11.8287L355.677 11.4723L356.028 11.1159L352.987 8.12347L352.636 8.47985ZM355.677 11.4723L355.326 11.1159L352.342 14.0529L352.693 14.4093L353.043 14.7657L356.028 11.8287L355.677 11.4723ZM363.898 3.38161L363.548 3.02524L355.326 11.1159L355.677 11.4723L356.028 11.8287L364.249 3.73798L363.898 3.38161ZM375.104 14.4093L374.741 14.7534C375.625 15.6853 376.883 16.2393 378.258 16.2393V15.7393V15.2393C377.154 15.2393 376.16 14.7958 375.467 14.0653L375.104 14.4093ZM378.258 15.7393V16.2393C380.887 16.2393 383.093 14.143 383.093 11.4723H382.593H382.093C382.093 13.5673 380.358 15.2393 378.258 15.2393V15.7393ZM382.593 11.4723H383.093C383.093 8.80576 380.947 6.70529 378.258 6.70529V7.20529V7.70529C380.41 7.70529 382.093 9.37308 382.093 11.4723H382.593ZM378.258 7.20529V6.70529C376.932 6.70529 375.746 7.2635 374.88 8.05533L375.217 8.42443L375.554 8.79353C376.264 8.14456 377.218 7.70529 378.258 7.70529V7.20529ZM370.149 5.37657L370.5 5.73295C371.825 4.42875 371.825 2.27906 370.5 0.974861L370.149 1.33123L369.798 1.68761C370.725 2.60003 370.725 4.10778 369.798 5.0202L370.149 5.37657ZM370.149 1.33123L370.5 0.974861C369.179 -0.324954 367.008 -0.324954 365.688 0.974861L366.038 1.33123L366.389 1.68761C367.321 0.770797 368.867 0.770797 369.798 1.68761L370.149 1.33123ZM366.038 1.33123L365.688 0.974861L363.604 3.02524L363.955 3.38161L364.305 3.73799L366.389 1.68761L366.038 1.33123ZM357.704 17.6234L357.354 17.2671C356.028 18.5713 356.028 20.7209 357.354 22.0251L357.704 21.6688L358.055 21.3124C357.128 20.4 357.128 18.8922 358.055 17.9798L357.704 17.6234ZM357.704 21.6688L357.354 22.0251C358.674 23.325 360.845 23.325 362.166 22.0251L361.815 21.6688L361.464 21.3124C360.533 22.2292 358.987 22.2292 358.055 21.3124L357.704 21.6688ZM361.815 21.6688L362.166 22.0251L372.527 11.8287L372.176 11.4723L371.825 11.1159L361.464 21.3124L361.815 21.6688ZM375.217 8.47985L374.866 8.12347L371.825 11.1159L372.176 11.4723L372.527 11.8287L375.568 8.83622L375.217 8.47985ZM372.176 11.4723L371.822 11.8253L374.75 14.7623L375.104 14.4093L375.458 14.0563L372.53 11.1193L372.176 11.4723ZM370.149 17.6234L370.5 17.2671L358.055 5.0202L357.704 5.37657L357.354 5.73295L369.798 17.9798L370.149 17.6234ZM357.704 17.6234L358.055 17.9798L370.5 5.73295L370.149 5.37657L369.798 5.0202L357.354 17.2671L357.704 17.6234Z" fill="#9C836B"/>
</svg>
