<svg width="24" height="24" viewBox="0 0 24 24" fill="none" xmlns="http://www.w3.org/2000/svg">
<path fill-rule="evenodd" clip-rule="evenodd" d="M12.3253 0C16.3703 0.000229333 19.6493 3.27926 19.6495 7.32422C19.6495 9.68505 18.5312 11.7835 16.797 13.123C20.7854 14.8848 23.1299 18.8038 23.13 22.7529C23.13 23.4414 22.5723 23.9998 21.8839 24C21.1953 24 20.6368 23.4415 20.6368 22.7529C20.6367 18.7262 17.4151 14.6496 12.0655 14.6494C6.71567 14.6494 3.49335 18.7261 3.49318 22.7529C3.49318 23.4414 2.93552 23.9998 2.24708 24C1.5585 24 1 23.4415 1 22.7529C1.00013 18.6933 3.47783 14.6656 7.67191 12.9805C6.04077 11.6371 5.00002 9.60231 5.00002 7.32422C5.00027 3.27912 8.28002 0 12.3253 0ZM12.3253 2.49316C9.65717 2.49316 7.49344 4.65625 7.4932 7.32422C7.4932 9.9924 9.65702 12.1562 12.3253 12.1562C14.9933 12.156 17.1563 9.99226 17.1563 7.32422C17.1561 4.65639 14.9931 2.49339 12.3253 2.49316Z" fill="white"/>
</svg>
