<svg width="24" height="24" viewBox="0 0 24 24" fill="none" xmlns="http://www.w3.org/2000/svg">
<g clip-path="url(#clip0_134_3)">
<path d="M8.72559 0C11.1657 0 13.2271 0.844094 14.9189 2.53418C16.6107 4.22417 17.4548 6.28473 17.4521 8.72559C17.4521 9.71077 17.2958 10.6384 16.9834 11.5088C16.6699 12.382 16.245 13.1524 15.71 13.8213L15.626 13.9258L15.7207 14.0215L23.3682 21.668C23.5876 21.8874 23.6992 22.1674 23.6992 22.5186C23.6991 22.8696 23.5876 23.1488 23.3682 23.3682C23.1488 23.5876 22.8696 23.6991 22.5186 23.6992C22.1674 23.6992 21.8874 23.5876 21.668 23.3682L14.0215 15.7207L13.9258 15.626L13.8213 15.71C13.1524 16.245 12.382 16.6699 11.5088 16.9834C10.6384 17.2958 9.71077 17.4521 8.72559 17.4521C6.28387 17.4521 4.22319 16.6078 2.53418 14.918C0.845025 13.2279 0.000896764 11.1666 6.37025e-07 8.72559C-0.00084654 6.28472 0.843299 4.22417 2.53418 2.53418C4.22509 0.84418 6.28564 6.21791e-05 8.72559 0ZM8.72559 2.43066C6.97765 2.4289 5.48858 3.04201 4.26758 4.26758C3.04677 5.49305 2.43346 6.98214 2.43066 8.72559C2.42787 10.4694 3.04114 11.9591 4.26758 13.1855C5.49388 14.4118 6.98287 15.0231 8.72559 15.0195C10.4719 15.0195 11.9618 14.4084 13.1855 13.1855C14.4094 11.9626 15.0214 10.4728 15.0205 8.72559C15.0195 6.97857 14.4075 5.48953 13.1855 4.26758C11.9636 3.04559 10.4736 2.43253 8.72559 2.43066Z" fill="white"/>
</g>
<defs>
<clipPath id="clip0_134_3">
<rect width="24" height="24" fill="white"/>
</clipPath>
</defs>
</svg>
