<svg width="81" height="57" viewBox="0 0 81 57" fill="none" xmlns="http://www.w3.org/2000/svg">
<g clip-path="url(#clip0_134_37)">
<path d="M40.6001 25.2998C44.3001 25.2998 47.5001 26.9998 49.3001 29.5998L53.6001 27.1998C50.9001 23.2998 46.1001 20.7998 40.6001 20.7998C35.1001 20.7998 30.3001 23.3998 27.6001 27.1998L31.9001 29.5998M40.6001 25.2998C36.9001 25.2998 33.7001 27.0998 31.9001 29.5998M40.6001 25.2998C36.9001 25.2998 33.7001 26.9998 31.9001 29.5998M40.6001 25.2998C44.3001 25.2998 47.4999 27.0998 49.0999 29.5998L47.0999 30.6998C45.7999 28.6998 43.2999 27.3998 40.4999 27.3998C37.6999 27.3998 35.2999 28.6998 33.8999 30.6998L31.9001 29.5998M40.6001 5.7002C44.3001 5.7002 47.5001 7.40018 49.3001 10.0002L53.6001 7.60016C50.9001 3.70016 46.1001 1.2002 40.6001 1.2002C35.1001 1.2002 30.3001 3.80016 27.6001 7.60016L31.9001 10.0002M40.6001 5.7002C36.9001 5.7002 33.7001 7.40018 31.9001 10.0002M40.6001 5.7002C44.3001 5.7002 47.4999 7.40018 49.0999 10.0002L47.0999 11.1002C45.7999 9.10016 43.2999 7.80017 40.4999 7.80017C37.6999 7.80017 35.2999 9.10016 33.8999 11.1002L31.9001 10.0002M24.2 15.5C27.9 15.5 31.1 17.2 32.9 19.8L37.2 17.4C34.5 13.5 29.7 11 24.2 11C18.7 11 13.9 13.6 11.2 17.4L15.4999 19.8M24.2 15.5C20.5 15.5 17.2999 17.2 15.4999 19.8M24.2 15.5C27.9 15.5 31.1 17.2 32.7 19.8L30.7 20.9C29.4 18.9 26.9 17.6 24.1 17.6C21.3 17.6 18.9 18.9 17.5 20.9L15.4999 19.8M56.8999 15.5C60.5999 15.5 63.7999 17.2 65.5999 19.8L69.8999 17.4C67.1999 13.5 62.3999 11 56.8999 11C51.3999 11 46.5999 13.6 43.8999 17.4L48.1999 19.8M56.8999 15.5C53.1999 15.5 49.9999 17.2 48.1999 19.8M56.8999 15.5C60.5999 15.5 63.8 17.2 65.4 19.8L63.4 20.9C62.1 18.9 59.5999 17.6 56.7999 17.6C53.9999 17.6 51.6 18.9 50.2 20.9L48.1999 19.8" stroke="white" stroke-width="0.6" stroke-miterlimit="10"/>
<path d="M6.76164 43.11V41.276H1.73564V40.506H7.60164V43.026C7.60164 47.786 5.65564 50.824 1.63764 51.874V51.104C5.03964 50.11 6.76164 47.38 6.76164 43.11ZM11.3536 40.268V45.602H13.4396V46.33H11.3536V52.672H10.4996V40.268H11.3536ZM14.9931 43.068C14.9931 42.13 15.3851 41.388 15.9871 40.898C16.5471 40.436 17.3171 40.198 18.1991 40.198C19.0671 40.198 19.8371 40.436 20.3971 40.898C21.0131 41.388 21.3911 42.13 21.3911 43.068C21.3911 44.006 21.0131 44.762 20.3971 45.252C19.8371 45.714 19.0671 45.966 18.1991 45.966C17.3171 45.966 16.5471 45.714 15.9871 45.252C15.3851 44.762 14.9931 44.006 14.9931 43.068ZM15.8331 43.068C15.8331 43.754 16.0851 44.3 16.5051 44.664C16.9251 45.028 17.5271 45.224 18.1991 45.224C18.8571 45.224 19.4591 45.028 19.8791 44.664C20.2991 44.3 20.5511 43.754 20.5511 43.068C20.5511 42.382 20.2991 41.836 19.8791 41.486C19.4591 41.108 18.8571 40.912 18.1991 40.912C17.5271 40.912 16.9251 41.108 16.5051 41.486C16.0851 41.836 15.8331 42.382 15.8331 43.068ZM25.1431 46.134H24.2891V40.268H25.1431V46.134ZM16.8271 50.432V52.126H25.3111V52.826H15.9731V49.732H24.2891V48.024H15.9731V47.324H25.1431V50.432H16.8271ZM28.6005 40.436H34.8445V41.178H32.1425V42.97C32.1425 45.028 33.5985 46.218 35.0545 46.582V47.352C33.5425 47.002 32.2685 46.036 31.7365 44.804C31.2325 46.064 29.9585 47.184 28.4045 47.534V46.75C29.9165 46.414 31.2885 45.084 31.2885 42.97V41.178H28.6005V40.436ZM38.5825 48.892H37.7285V44.104H34.8165V43.362H37.7285V40.268H38.5825V48.892ZM38.8345 52.742H29.4125V48.808H30.2665V52H38.8345V52.742ZM43.342 43.334V44.874H52.022V45.574H47.626V47.086H52.806V47.786H41.62V47.086H46.772V45.574H42.488V40.436H51.938V41.136H43.342V42.648H51.77V43.334H43.342ZM42.25 51.076C42.25 50.516 42.572 50.096 43.146 49.774C44 49.312 45.428 49.088 47.234 49.088C49.054 49.088 50.468 49.312 51.322 49.774C51.896 50.096 52.218 50.516 52.218 51.076C52.218 51.664 51.896 52.098 51.322 52.406C50.468 52.868 49.054 53.064 47.234 53.064C45.428 53.064 44 52.868 43.146 52.406C42.572 52.098 42.25 51.664 42.25 51.076ZM43.104 51.076C43.104 51.384 43.272 51.608 43.58 51.804C44.238 52.196 45.512 52.364 47.234 52.364C48.956 52.364 50.216 52.196 50.874 51.804C51.21 51.608 51.364 51.384 51.364 51.076C51.364 50.81 51.21 50.558 50.874 50.376C50.216 49.984 48.956 49.802 47.234 49.802C45.512 49.802 44.238 49.984 43.58 50.376C43.272 50.558 43.104 50.81 43.104 51.076ZM55.1575 43.712C55.1575 42.522 55.5355 41.584 56.1795 40.968C56.7255 40.464 57.4675 40.198 58.3635 40.198C59.2595 40.198 60.0015 40.464 60.5335 40.968C61.2055 41.584 61.5555 42.522 61.5555 43.712C61.5555 44.916 61.2055 45.854 60.5335 46.47C60.0015 46.974 59.2595 47.254 58.3635 47.254C57.4675 47.254 56.7255 46.974 56.1795 46.47C55.5355 45.854 55.1575 44.916 55.1575 43.712ZM55.9975 43.712C55.9975 44.65 56.2495 45.406 56.7535 45.882C57.1455 46.288 57.6915 46.512 58.3635 46.512C59.0355 46.512 59.5815 46.288 59.9875 45.882C60.4635 45.406 60.7155 44.65 60.7155 43.712C60.7155 42.788 60.4635 42.032 59.9875 41.556C59.5815 41.15 59.0355 40.94 58.3635 40.94C57.6915 40.94 57.1455 41.15 56.7535 41.556C56.2495 42.032 55.9975 42.788 55.9975 43.712ZM65.1115 40.268V43.88H67.0715V44.622H65.1115V48.892H64.2575V40.268H65.1115ZM56.9215 48.808V52H65.3495V52.742H56.0675V48.808H56.9215ZM70.1089 44.72V47.436H79.0829V48.178H76.9269V51.384H79.6149V52.098H68.5689V51.384H71.3269V48.178H69.2549V43.978H78.0749V41.262H69.2549V40.506H78.9289V44.72H70.1089ZM76.0729 48.178H72.1809V51.384H76.0729V48.178Z" fill="white"/>
</g>
<defs>
<clipPath id="clip0_134_37">
<rect width="81" height="57" fill="white"/>
</clipPath>
</defs>
</svg>
