<?xml version="1.0" encoding="utf-8"?>
<!-- Generator: Adobe Illustrator 24.1.2, SVG Export Plug-In . SVG Version: 6.00 Build 0)  -->
<svg version="1.1" id="Layer_1" xmlns="http://www.w3.org/2000/svg" xmlns:xlink="http://www.w3.org/1999/xlink" x="0px" y="0px"
	 viewBox="0 0 376.2 267.8" style="enable-background:new 0 0 376.2 267.8;" xml:space="preserve">
<style type="text/css">
	.st0{fill:#FFFFFF;}
	.st1{fill:none;stroke:#FFFFFF;stroke-width:3;stroke-linecap:round;stroke-miterlimit:10;}
	.st2{fill:#FFFFFF;stroke:#FFFFFF;stroke-width:3;stroke-miterlimit:10;}
</style>
<image style="overflow:visible;" width="79" height="56" xlink:href="../../../Rectangle 13.png"  transform="matrix(4.9241 0 0 4.9241 -510.1224 160.3265)">
</image>
<g>
	<path class="st0" d="M26.2,219.2v-7.3H4.9v-4.3h26.3v11.1c0,21-8.4,34.6-26.6,39.4v-4.6C19.2,249.2,26.2,237.4,26.2,219.2z
		 M47.6,206.6v23.1h9v4.3h-9v27.6h-4.9v-55H47.6z"/>
	<path class="st0" d="M68,219.2c0-4.4,1.8-7.7,4.6-9.9c2.5-2,5.8-3,9.6-3c3.8,0,7.2,1,9.6,3c2.8,2.3,4.6,5.6,4.6,9.9
		c0,4.3-1.8,7.7-4.6,9.9c-2.5,2-5.8,3-9.6,3c-3.8,0-7.2-1-9.6-3C69.8,226.9,68,223.5,68,219.2z M77.1,251.7v6.4h36.6v4H72.2v-14.5
		h35.9v-6.4H72.2v-4.1H113v14.5H77.1z M72.8,219.2c0,2.8,1,5,2.8,6.6c1.7,1.5,3.9,2.2,6.6,2.2c2.6,0,5-0.7,6.6-2.2
		c1.7-1.5,2.8-3.7,2.8-6.6c0-2.8-1-5-2.8-6.6c-1.7-1.4-4-2.2-6.6-2.2c-2.7,0-5,0.8-6.6,2.2C73.8,214.2,72.8,216.4,72.8,219.2z
		 M113,232.8h-4.9v-26.2h4.9V232.8z"/>
	<path class="st0" d="M132.6,207.2h27.9v4.3H149v6.7c0,9.3,5.8,14.1,12.5,15.7v4.4c-6.6-1.4-12.3-5.3-14.8-10.4
		c-2.5,5.2-8.2,9.9-15,11.2v-4.4c6.8-1.5,12.4-7,12.4-16.5v-6.7h-11.5V207.2z M177.9,261.8H136v-18h5v13.8h36.9V261.8z M176.8,244.9
		h-4.9v-20.7h-12.3v-4.2h12.3v-13.3h4.9V244.9z"/>
	<path class="st0" d="M203.3,220.8v5.6h37.5v3.9h-19v5.7h22.4v4.1h-49.5v-4.1h22.2v-5.7h-18.4v-23.1h42v4.1h-37.1v5.6h36.4v3.9
		H203.3z M197.2,254.2c0-2.8,1.7-4.8,4.5-6.2c3.8-2,10-2.8,17.7-2.8s13.9,0.9,17.7,2.8c2.8,1.4,4.5,3.4,4.5,6.2
		c0,2.8-1.7,4.9-4.5,6.3c-3.8,2-10,2.8-17.7,2.8s-13.9-0.8-17.7-2.8C198.9,259.1,197.2,257,197.2,254.2z M202.2,254.2
		c0,1.2,0.7,2.1,2,2.8c2.8,1.5,8.1,2.2,15.2,2.2c7.1,0,12.3-0.7,15.1-2.2c1.4-0.7,2.1-1.6,2.1-2.8c0-1.1-0.7-2.1-2.1-2.8
		c-2.8-1.5-8-2.1-15.1-2.1c-7.1,0-12.4,0.7-15.2,2.1C202.9,252.1,202.2,253.1,202.2,254.2z"/>
	<path class="st0" d="M258.9,222c0-5.4,1.7-9.6,4.5-12.3c2.5-2.2,5.7-3.4,9.7-3.4c4.1,0,7.3,1.2,9.7,3.4c2.9,2.7,4.5,6.9,4.5,12.3
		c0,5.5-1.6,9.6-4.5,12.3c-2.4,2.3-5.6,3.4-9.7,3.4c-4,0-7.2-1.2-9.7-3.4C260.5,231.6,258.9,227.4,258.9,222z M267.7,243.8v13.8
		h36.4v4.2h-41.3v-18H267.7z M263.7,222c0,3.9,1,7,3,9c1.6,1.6,3.7,2.5,6.4,2.5s4.9-0.9,6.4-2.5c1.9-2,2.9-5.1,2.9-9s-1-7-2.9-9
		c-1.6-1.5-3.7-2.4-6.4-2.4s-4.9,0.9-6.4,2.4C264.7,215,263.7,218,263.7,222z M303,206.6v15.5h8.4v4.4H303v18.4h-4.9v-38.3H303z"/>
	<path class="st0" d="M330.5,226.9v10.8h38.7v4.2H360v12.9h11.5v4.3h-48.9v-4.3h11.9v-12.9h-8.9v-19.3h38v-10.7h-38v-4.3h42.9v19.3
		H330.5z M355.1,241.9h-15.8v12.9h15.8V241.9z"/>
</g>
<g>
	<g>
		<path class="st1" d="M33.5,106.2c12.9-12.6,31.3-20.5,51.7-20.5s38.8,7.9,51.7,20.5c0.8-0.4,1.5-0.8,2.3-1.3
			c9.9-5.5,18.7-9.6,23.8-11.9c-18.4-20.8-46.4-34-77.8-34S25.8,72.2,7.4,93c5.1,2.3,13.9,6.4,23.8,11.9
			C32,105.3,32.7,105.8,33.5,106.2z"/>
		<path class="st2" d="M85.2,85.6c-20.4,0-38.8,7.9-51.7,20.5c6.2,3.4,11,6.1,14,7.8c9.8-8.5,23.1-13.7,37.7-13.7
			s27.9,5.2,37.7,13.7c3.1-1.7,7.8-4.4,14-7.8C124,93.6,105.7,85.6,85.2,85.6z"/>
	</g>
	<g>
		<path class="st1" d="M239.1,106.2c12.9-12.6,31.3-20.5,51.7-20.5s38.8,7.9,51.7,20.5c0.8-0.4,1.5-0.8,2.3-1.3
			c9.9-5.5,18.7-9.6,23.8-11.9c-18.4-20.8-46.4-34-77.8-34S231.3,72.2,213,93c5.1,2.3,13.9,6.4,23.8,11.9
			C237.5,105.3,238.3,105.8,239.1,106.2z"/>
		<path class="st2" d="M290.8,85.6c-20.4,0-38.8,7.9-51.7,20.5c6.2,3.4,11,6.1,14,7.8c9.8-8.5,23.1-13.7,37.7-13.7
			s27.9,5.2,37.7,13.7c3.1-1.7,7.8-4.4,14-7.8C329.6,93.6,311.2,85.6,290.8,85.6z"/>
	</g>
</g>
<g>
	<g>
		<path class="st1" d="M136.3,53.5C149.2,40.9,167.6,33,188,33s38.8,7.9,51.7,20.5c0.8-0.4,1.5-0.8,2.3-1.3
			c9.9-5.5,18.7-9.6,23.8-11.9c-18.4-20.8-46.4-34-77.8-34s-59.5,13.3-77.8,34c5.1,2.3,13.9,6.4,23.8,11.9
			C134.8,52.7,135.5,53.1,136.3,53.5z"/>
		<path class="st2" d="M188,33c-20.4,0-38.8,7.9-51.7,20.5c6.2,3.4,11,6.1,14,7.8c9.8-8.5,23.1-13.7,37.7-13.7
			c14.6,0,27.9,5.2,37.7,13.7c3.1-1.7,7.8-4.4,14-7.8C226.8,40.9,208.4,33,188,33z"/>
	</g>
	<g>
		<path class="st1" d="M136.3,157.8c12.9-12.6,31.3-20.5,51.7-20.5s38.8,7.9,51.7,20.5c0.8-0.4,1.5-0.8,2.3-1.3
			c9.9-5.5,18.7-9.6,23.8-11.9c-18.4-20.8-46.4-34-77.8-34s-59.5,13.3-77.8,34c5.1,2.3,13.9,6.4,23.8,11.9
			C134.8,157,135.5,157.4,136.3,157.8z"/>
		<path class="st2" d="M188,137.3c-20.4,0-38.8,7.9-51.7,20.5c6.2,3.4,11,6.1,14,7.8c9.8-8.5,23.1-13.7,37.7-13.7
			c14.6,0,27.9,5.2,37.7,13.7c3.1-1.7,7.8-4.4,14-7.8C226.8,145.2,208.4,137.3,188,137.3z"/>
	</g>
</g>
</svg>
