<?xml version="1.0" encoding="utf-8"?>
<!-- Generator: Adobe Illustrator 24.1.2, SVG Export Plug-In . SVG Version: 6.00 Build 0)  -->
<svg version="1.1" id="Layer_1" xmlns="http://www.w3.org/2000/svg" xmlns:xlink="http://www.w3.org/1999/xlink" x="0px" y="0px"
	 viewBox="0 0 376.2 267.8" style="enable-background:new 0 0 376.2 267.8;" xml:space="preserve">
<style type="text/css">
	.st0{fill:#FFFFFF;}
	.st1{font-family:'S-CoreDream-4Regular';}
	.st2{font-size:61.4059px;}
	.st3{letter-spacing:4;}
	.st4{fill:none;stroke:#FFFFFF;stroke-width:3;stroke-linecap:round;stroke-miterlimit:10;}
	.st5{fill:#FFFFFF;stroke:#FFFFFF;stroke-width:3;stroke-miterlimit:10;}
</style>
<image style="overflow:visible;" width="79" height="56" xlink:href="../../../Rectangle 13.png"  transform="matrix(4.9241 0 0 4.9241 -510.1224 160.3265)">
</image>
<text transform="matrix(1 0 0 1 -1.7143 258.3003)" class="st0 st1 st2 st3">가일전통안료</text>
<g>
	<g>
		<path class="st4" d="M33.5,106.2c12.9-12.6,31.3-20.5,51.7-20.5s38.8,7.9,51.7,20.5c0.8-0.4,1.5-0.8,2.3-1.3
			c9.9-5.5,18.7-9.6,23.8-11.9c-18.4-20.8-46.4-34-77.8-34S25.8,72.2,7.4,93c5.1,2.3,13.9,6.4,23.8,11.9
			C32,105.3,32.7,105.8,33.5,106.2z"/>
		<path class="st5" d="M85.2,85.6c-20.4,0-38.8,7.9-51.7,20.5c6.2,3.4,11,6.1,14,7.8c9.8-8.5,23.1-13.7,37.7-13.7
			s27.9,5.2,37.7,13.7c3.1-1.7,7.8-4.4,14-7.8C124,93.6,105.7,85.6,85.2,85.6z"/>
	</g>
	<g>
		<path class="st4" d="M239.1,106.2c12.9-12.6,31.3-20.5,51.7-20.5s38.8,7.9,51.7,20.5c0.8-0.4,1.5-0.8,2.3-1.3
			c9.9-5.5,18.7-9.6,23.8-11.9c-18.4-20.8-46.4-34-77.8-34S231.3,72.2,213,93c5.1,2.3,13.9,6.4,23.8,11.9
			C237.5,105.3,238.3,105.8,239.1,106.2z"/>
		<path class="st5" d="M290.8,85.6c-20.4,0-38.8,7.9-51.7,20.5c6.2,3.4,11,6.1,14,7.8c9.8-8.5,23.1-13.7,37.7-13.7
			s27.9,5.2,37.7,13.7c3.1-1.7,7.8-4.4,14-7.8C329.6,93.6,311.2,85.6,290.8,85.6z"/>
	</g>
</g>
<g>
	<g>
		<path class="st4" d="M136.3,53.5C149.2,40.9,167.6,33,188,33s38.8,7.9,51.7,20.5c0.8-0.4,1.5-0.8,2.3-1.3
			c9.9-5.5,18.7-9.6,23.8-11.9c-18.4-20.8-46.4-34-77.8-34s-59.5,13.3-77.8,34c5.1,2.3,13.9,6.4,23.8,11.9
			C134.8,52.7,135.5,53.1,136.3,53.5z"/>
		<path class="st5" d="M188,33c-20.4,0-38.8,7.9-51.7,20.5c6.2,3.4,11,6.1,14,7.8c9.8-8.5,23.1-13.7,37.7-13.7
			c14.6,0,27.9,5.2,37.7,13.7c3.1-1.7,7.8-4.4,14-7.8C226.8,40.9,208.4,33,188,33z"/>
	</g>
	<g>
		<path class="st4" d="M136.3,157.8c12.9-12.6,31.3-20.5,51.7-20.5s38.8,7.9,51.7,20.5c0.8-0.4,1.5-0.8,2.3-1.3
			c9.9-5.5,18.7-9.6,23.8-11.9c-18.4-20.8-46.4-34-77.8-34s-59.5,13.3-77.8,34c5.1,2.3,13.9,6.4,23.8,11.9
			C134.8,157,135.5,157.4,136.3,157.8z"/>
		<path class="st5" d="M188,137.3c-20.4,0-38.8,7.9-51.7,20.5c6.2,3.4,11,6.1,14,7.8c9.8-8.5,23.1-13.7,37.7-13.7
			c14.6,0,27.9,5.2,37.7,13.7c3.1-1.7,7.8-4.4,14-7.8C226.8,145.2,208.4,137.3,188,137.3z"/>
	</g>
</g>
</svg>
