<?xml version="1.0" encoding="utf-8"?>
<!-- Generator: Adobe Illustrator 24.1.2, SVG Export Plug-In . SVG Version: 6.00 Build 0)  -->
<svg version="1.1" id="Layer_1" xmlns="http://www.w3.org/2000/svg" xmlns:xlink="http://www.w3.org/1999/xlink" x="0px" y="0px"
	 viewBox="0 0 1200 1080" style="enable-background:new 0 0 1200 1080;" xml:space="preserve">
<style type="text/css">
	.st0{fill:none;stroke:#FFFFFF;stroke-width:0.6;stroke-miterlimit:10;}
</style>
<image style="overflow:visible;" width="245" height="50" xlink:href="C:\Users\G\Desktop\새 폴더 (3)\자료\로고.jpg"  transform="matrix(1 0 0 1 492.9388 513.7755)">
</image>
<path class="st0" d="M521.6,593.3c3.7,0,6.9,1.7,8.7,4.3l4.3-2.4c-2.7-3.9-7.5-6.4-13-6.4s-10.3,2.6-13,6.4l4.3,2.4
	C514.7,595.1,517.9,593.3,521.6,593.3z"/>
<path class="st0" d="M521.6,593.3c-3.7,0-6.9,1.7-8.7,4.3l2,1.1c1.4-2,3.8-3.3,6.6-3.3s5.3,1.3,6.6,3.3l2-1.1
	C528.5,595.1,525.3,593.3,521.6,593.3z"/>
<path class="st0" d="M521.6,573.7c3.7,0,6.9,1.7,8.7,4.3l4.3-2.4c-2.7-3.9-7.5-6.4-13-6.4s-10.3,2.6-13,6.4l4.3,2.4
	C514.7,575.4,517.9,573.7,521.6,573.7z"/>
<path class="st0" d="M521.6,573.7c-3.7,0-6.9,1.7-8.7,4.3l2,1.1c1.4-2,3.8-3.3,6.6-3.3s5.3,1.3,6.6,3.3l2-1.1
	C528.5,575.4,525.3,573.7,521.6,573.7z"/>
<path class="st0" d="M505.2,583.5c3.7,0,6.9,1.7,8.7,4.3l4.3-2.4c-2.7-3.9-7.5-6.4-13-6.4s-10.3,2.6-13,6.4l4.3,2.4
	C498.3,585.2,501.5,583.5,505.2,583.5z"/>
<path class="st0" d="M505.2,583.5c-3.7,0-6.9,1.7-8.7,4.3l2,1.1c1.4-2,3.8-3.3,6.6-3.3s5.3,1.3,6.6,3.3l2-1.1
	C512.1,585.2,508.9,583.5,505.2,583.5z"/>
<path class="st0" d="M537.9,583.5c3.7,0,6.9,1.7,8.7,4.3l4.3-2.4c-2.7-3.9-7.5-6.4-13-6.4s-10.3,2.6-13,6.4l4.3,2.4
	C531,585.2,534.2,583.5,537.9,583.5z"/>
<path class="st0" d="M537.9,583.5c-3.7,0-6.9,1.7-8.7,4.3l2,1.1c1.4-2,3.8-3.3,6.6-3.3s5.3,1.3,6.6,3.3l2-1.1
	C544.8,585.2,541.6,583.5,537.9,583.5z"/>
</svg>
